<?xml version="1.0" encoding="UTF-8"?>
<svg xmlns="http://www.w3.org/2000/svg" viewBox="0 0 200 90" fill="none">
  <!-- Внедорожник: высокий, угловатый, плоская крыша, массивный -->
  <path d="M10,60 L10,20 L14,14 L20,10 L146,8 L156,8 L166,12 L174,20 L180,34 L186,40 L192,48 L192,60 L178,60 C176,48 158,48 156,60 L48,60 C46,48 28,48 26,60 Z" fill="currentColor"/>
  <!-- Окна -->
  <path d="M16,22 L22,14 L80,14 L80,38 L14,38 Z" fill="currentColor" opacity="0.18"/>
  <path d="M84,12 L142,12 L142,38 L84,38 Z" fill="currentColor" opacity="0.18"/>
  <path d="M146,12 L156,10 L164,14 L172,22 L178,34 L180,38 L146,38 Z" fill="currentColor" opacity="0.18"/>
  <!-- Рейлинги -->
  <rect x="18" y="7" width="142" height="2.5" rx="1" fill="currentColor" opacity="0.3"/>
  <!-- Линия капота -->
  <line x1="180" y1="36" x2="190" y2="44" stroke="currentColor" stroke-width="0.8" opacity="0.15"/>
  <!-- Запаска (намёк) -->
  <circle cx="10" cy="38" r="8" fill="none" stroke="currentColor" stroke-width="1.5" opacity="0.15"/>
  <!-- Фара -->
  <ellipse cx="190" cy="48" rx="3" ry="4" fill="currentColor" opacity="0.3"/>
  <!-- Фонарь -->
  <rect x="10" y="18" width="4" height="8" rx="1" fill="currentColor" opacity="0.3"/>
  <!-- Колёса (большие) -->
  <circle cx="37" cy="64" r="14" fill="currentColor"/>
  <circle cx="37" cy="64" r="8" fill="currentColor" opacity="0.25"/>
  <circle cx="37" cy="64" r="3.5" fill="currentColor" opacity="0.45"/>
  <circle cx="167" cy="64" r="14" fill="currentColor"/>
  <circle cx="167" cy="64" r="8" fill="currentColor" opacity="0.25"/>
  <circle cx="167" cy="64" r="3.5" fill="currentColor" opacity="0.45"/>
</svg>
