<?xml version="1.0" encoding="UTF-8"?>
<svg xmlns="http://www.w3.org/2000/svg" viewBox="0 0 200 90" fill="none">
  <!-- Фургон: компактный, округлый, глухие борта -->
  <path d="M10,60 Q8,48 12,40 L16,30 Q18,18 24,12 Q30,6 42,6 L160,6 Q172,6 178,12 L186,28 L190,40 Q194,50 192,60 L178,60 C176,48 158,48 156,60 L48,60 C46,48 28,48 26,60 Z" fill="currentColor"/>
  <!-- Окно лобовое -->
  <path d="M166,14 Q172,8 178,14 L186,28 L188,36 L162,36 L162,18 Z" fill="currentColor" opacity="0.18"/>
  <!-- Окно боковое маленькое -->
  <path d="M142,10 L158,10 L158,32 L142,32 Z" fill="currentColor" opacity="0.18"/>
  <!-- Линия разделения грузовой части -->
  <line x1="138" y1="8" x2="138" y2="56" stroke="currentColor" stroke-width="1.2" opacity="0.15"/>
  <!-- Задние створки -->
  <line x1="60" y1="10" x2="60" y2="56" stroke="currentColor" stroke-width="1" opacity="0.12"/>
  <!-- Фара -->
  <ellipse cx="190" cy="44" rx="3" ry="4" fill="currentColor" opacity="0.3"/>
  <!-- Фонарь -->
  <ellipse cx="12" cy="44" rx="3" ry="4" fill="currentColor" opacity="0.3"/>
  <!-- Колёса -->
  <circle cx="37" cy="64" r="13" fill="currentColor"/>
  <circle cx="37" cy="64" r="7" fill="currentColor" opacity="0.25"/>
  <circle cx="37" cy="64" r="3" fill="currentColor" opacity="0.45"/>
  <circle cx="167" cy="64" r="13" fill="currentColor"/>
  <circle cx="167" cy="64" r="7" fill="currentColor" opacity="0.25"/>
  <circle cx="167" cy="64" r="3" fill="currentColor" opacity="0.45"/>
</svg>
