<?xml version="1.0" encoding="UTF-8"?>
<svg xmlns="http://www.w3.org/2000/svg" viewBox="0 0 200 90" fill="none">
  <!-- Хэтчбек: компактный, наклонный зад, чуть выше седана -->
  <path d="M10,60 L10,42 L16,36 L24,26 L42,12 L50,10 L140,10 L150,12 L162,26 L168,36 L176,40 L184,44 L190,50 L192,58 L192,60 L178,60 C176,48 158,48 156,60 L48,60 C46,48 28,48 26,60 Z" fill="currentColor"/>
  <!-- Окна -->
  <path d="M46,14 L52,12 L90,12 L90,34 L28,34 L32,28 L40,16 Z" fill="currentColor" opacity="0.18"/>
  <path d="M94,12 L138,12 L148,14 L158,26 L162,34 L94,34 Z" fill="currentColor" opacity="0.18"/>
  <!-- Линия капота -->
  <line x1="168" y1="36" x2="188" y2="46" stroke="currentColor" stroke-width="0.8" opacity="0.15"/>
  <!-- Фара -->
  <ellipse cx="190" cy="50" rx="3" ry="3" fill="currentColor" opacity="0.3"/>
  <!-- Фонарь -->
  <rect x="10" y="36" width="5" height="8" rx="1" fill="currentColor" opacity="0.3"/>
  <!-- Колёса -->
  <circle cx="37" cy="64" r="13" fill="currentColor"/>
  <circle cx="37" cy="64" r="7" fill="currentColor" opacity="0.25"/>
  <circle cx="37" cy="64" r="3" fill="currentColor" opacity="0.45"/>
  <circle cx="167" cy="64" r="13" fill="currentColor"/>
  <circle cx="167" cy="64" r="7" fill="currentColor" opacity="0.25"/>
  <circle cx="167" cy="64" r="3" fill="currentColor" opacity="0.45"/>
</svg>
